<?xml version="1.0" standalone="no"?>
<!DOCTYPE svg PUBLIC "-//W3C//DTD SVG 20010904//EN"
 "http://www.w3.org/TR/2001/REC-SVG-20010904/DTD/svg10.dtd">
<svg version="1.0" xmlns="http://www.w3.org/2000/svg"
 width="4505.000000pt" height="4505.000000pt" viewBox="0 0 4505.000000 4505.000000"
 preserveAspectRatio="xMidYMid meet">
<metadata>
Created by potrace 1.14, written by Peter Selinger 2001-2017
</metadata>
<g transform="translate(0.000000,4505.000000) scale(0.100000,-0.100000)"
fill="#000000" stroke="none">
<path d="M6560 22530 l0 -22520 15960 0 15960 0 0 22520 0 22520 -15960 0
-15960 0 0 -22520z m19379 18710 c208 -32 365 -92 786 -305 532 -269 1000
-549 1975 -1182 212 -137 454 -293 538 -347 84 -54 165 -114 180 -132 16 -19
38 -62 50 -97 23 -65 97 -367 91 -370 -2 -1 -76 -27 -164 -57 -249 -85 -216
-91 -685 109 -1066 452 -2215 949 -3290 1421 -278 122 -584 256 -680 298 -203
89 -230 111 -324 260 l-58 93 21 122 c12 66 23 122 24 124 2 1 88 7 192 13
105 6 291 20 415 31 124 11 277 24 340 29 144 11 491 5 589 -10z m-4669 -539
c531 -65 1288 -200 1855 -331 2434 -562 4642 -1579 6600 -3040 450 -335 727
-591 1066 -985 302 -350 372 -458 447 -685 27 -82 146 -506 159 -566 4 -15
-14 -36 -74 -89 -43 -38 -88 -78 -100 -88 -26 -23 10 -35 -308 106 -388 172
-458 213 -690 407 -2118 1771 -4587 3023 -7625 3869 -692 193 -1636 413 -2390
556 -294 56 -394 80 -565 139 -189 64 -594 211 -600 218 -3 3 36 33 87 66 399
258 789 393 1293 446 22 2 184 2 360 1 243 -3 359 -8 485 -24z m-2400 -1341
c3217 -130 6041 -1024 8610 -2725 625 -414 1101 -776 1800 -1370 1681 -1426
2693 -2401 3531 -3402 304 -362 531 -705 783 -1180 176 -330 302 -605 735
-1591 78 -177 186 -418 240 -535 121 -260 131 -298 137 -567 2 -107 6 -276 9
-374 l4 -179 -32 30 c-18 17 -124 104 -237 193 -113 90 -232 191 -265 225
-113 115 -636 875 -950 1380 -478 771 -819 1274 -1233 1824 -2404 3189 -5479
5297 -9226 6325 -1394 383 -2840 609 -4496 701 -489 27 -2042 154 -2056 167
-3 3 -8 75 -11 159 l-6 154 114 111 c260 253 551 421 914 528 210 62 471 107
727 125 165 12 626 12 908 1z m325 -1941 c905 -50 1786 -214 2693 -500 1203
-380 2539 -942 4172 -1755 586 -292 642 -322 850 -460 327 -217 585 -439 1131
-970 135 -131 366 -354 514 -494 504 -477 936 -912 1880 -1890 1571 -1628
2822 -3571 3841 -5962 363 -852 732 -1872 1073 -2958 295 -943 448 -1622 517
-2290 21 -212 30 -759 15 -975 -38 -536 -109 -855 -364 -1635 l-84 -255 -114
-12 c-181 -20 -159 -36 -230 167 -237 678 -250 729 -274 1090 -195 2941 -1083
5718 -2693 8425 -597 1004 -1410 2152 -2007 2835 -565 646 -1177 1197 -1784
1604 -487 328 -1529 905 -2231 1237 -2047 967 -3939 1469 -5920 1569 -254 13
-951 13 -1211 0 -1290 -64 -2495 -295 -3764 -723 -430 -145 -732 -263 -1525
-592 -256 -106 -546 -226 -645 -266 l-180 -73 -165 33 c-91 19 -175 36 -188
38 l-22 5 19 32 c11 17 96 182 191 366 194 380 290 532 437 695 703 776 1619
1231 2979 1479 1108 203 2341 272 3509 196 1228 -80 2426 -298 3774 -686 511
-147 1160 -305 1253 -304 58 1 220 37 229 51 10 17 79 207 79 219 0 4 -44 32
-97 61 -54 28 -208 113 -343 187 -588 324 -821 425 -1515 657 -1213 406 -2324
624 -3655 717 -251 18 -1358 18 -1610 0 -757 -53 -1387 -135 -1986 -260 l-229
-47 -205 1 c-195 1 -217 3 -445 43 -185 33 -392 67 -483 81 -6 0 335 357 478
500 242 243 335 297 673 394 927 268 1801 405 2797 440 149 5 667 -3 865 -15z
m-429 -4169 c1731 -100 3662 -419 5829 -965 890 -224 1359 -356 1675 -470
1571 -570 2897 -1681 4062 -3405 831 -1229 1778 -3119 2405 -4800 1272 -3409
1653 -6772 1167 -10320 -305 -2230 -940 -3916 -2014 -5345 -580 -772 -1311
-1526 -1941 -2002 -924 -699 -1875 -1046 -3074 -1123 -206 -13 -809 -13 -1046
0 -574 32 -1181 101 -1994 226 -438 67 -604 100 -806 158 -278 81 -534 185
-864 351 -410 207 -655 357 -1600 975 -401 262 -467 302 -685 410 -399 197
-677 294 -1461 510 -747 207 -1059 305 -1554 488 -334 124 -461 161 -740 217
-121 24 -247 53 -279 65 -33 11 -60 19 -62 17 -1 -1 53 -115 120 -252 131
-267 152 -298 376 -565 483 -574 1053 -1036 1648 -1335 314 -158 717 -299
2127 -745 385 -122 747 -240 805 -262 58 -22 231 -97 385 -166 477 -212 619
-265 875 -328 370 -92 660 -242 865 -448 131 -133 169 -208 130 -263 -18 -25
-50 -36 -164 -58 -110 -20 -153 -19 -264 6 -138 30 -210 37 -582 54 -1140 51
-1677 141 -2653 446 -830 260 -1518 588 -2447 1168 -615 384 -1560 1049 -1575
1108 -3 12 -50 59 -105 105 -130 108 -404 382 -529 528 -339 397 -612 841
-779 1265 -76 192 -99 272 -292 1015 -232 892 -389 1375 -594 1838 -142 322
-359 650 -662 1003 -134 156 -474 515 -604 637 l-100 93 -17 -52 c-65 -192
-97 -465 -79 -678 29 -352 115 -618 403 -1256 265 -585 346 -814 403 -1140 31
-176 32 -545 1 -545 -23 0 -212 78 -316 130 -222 111 -396 237 -576 415 -322
318 -543 688 -807 1350 -461 1157 -741 2348 -861 3665 -51 552 -60 777 -60
1490 -1 677 5 874 45 1420 158 2193 769 4349 1914 6749 243 511 460 836 938
1408 261 312 285 336 381 383 154 76 357 109 469 76 73 -21 116 -59 160 -144
57 -108 78 -198 84 -352 5 -131 4 -138 -27 -235 -125 -387 -335 -858 -610
-1365 -1081 -1992 -1629 -4189 -1741 -6980 -38 -934 87 -1722 394 -2490 233
-586 512 -1055 951 -1604 332 -415 597 -818 1021 -1551 16 -27 55 -99 88 -160
55 -104 58 -108 53 -65 -3 25 -9 281 -12 570 -9 704 10 1131 74 1675 24 209
27 262 27 590 0 378 -11 518 -56 753 -38 196 -63 263 -175 463 -538 967 -745
1525 -939 2533 -105 551 -182 1021 -209 1286 -39 370 -45 899 -16 1250 118
1430 594 2793 1572 4505 131 228 444 764 596 1020 987 1662 2193 2549 3747
2754 269 35 425 45 755 45 435 0 807 -33 1265 -110 1994 -336 3590 -998 4865
-2019 750 -600 1387 -1326 1903 -2167 562 -915 981 -1945 1292 -3173 320
-1264 439 -2339 374 -3380 -61 -994 -317 -1996 -723 -2831 -221 -455 -465
-805 -781 -1119 -459 -457 -990 -729 -1620 -827 -192 -30 -649 -33 -855 -5
-341 46 -674 134 -1005 264 -666 263 -1253 610 -1775 1051 -158 133 -483 459
-620 622 -689 818 -1141 1812 -1379 3030 -83 429 -114 705 -131 1161 -12 348
-29 1023 -25 1027 2 2 83 25 182 52 128 35 180 45 185 37 4 -7 80 -174 169
-372 290 -645 336 -743 616 -1300 590 -1177 1040 -2041 1415 -2720 173 -313
245 -392 647 -713 263 -209 412 -319 566 -415 1512 -940 2950 -405 3710 1383
310 728 449 1481 432 2340 -9 426 -42 772 -117 1215 -139 821 -361 1655 -605
2275 -604 1534 -1694 2886 -3180 3945 -1070 762 -2220 1048 -3317 825 -1094
-223 -2079 -969 -2744 -2077 -663 -1105 -993 -2539 -924 -4013 53 -1129 267
-2180 865 -4250 296 -1026 950 -3111 1077 -3434 140 -358 436 -879 768 -1356
486 -697 1311 -1699 1705 -2070 358 -337 428 -394 577 -467 119 -59 210 -76
368 -70 114 4 159 11 290 45 294 76 462 152 707 323 372 258 432 304 880 671
182 149 264 223 329 299 101 118 179 184 301 258 48 29 79 50 68 46 -64 -21
-280 -68 -400 -87 -170 -26 -549 -32 -705 -10 -661 93 -1243 398 -1965 1028
-193 168 -806 777 -1001 994 -425 473 -763 906 -1083 1385 -275 411 -467 744
-685 1185 -870 1757 -1192 3684 -966 5785 76 700 236 1536 379 1973 209 638
560 1249 1047 1817 219 257 639 665 839 817 307 233 655 388 1035 461 99 19
148 22 355 21 268 0 350 -12 551 -79 263 -87 441 -211 562 -390 53 -79 354
-664 347 -676 -3 -3 -21 -10 -42 -14 -20 -4 -118 -31 -217 -61 -360 -109 -450
-122 -669 -97 -228 26 -604 23 -757 -5 -411 -75 -711 -257 -1012 -612 -234
-277 -520 -747 -722 -1187 -307 -669 -486 -1355 -562 -2153 -21 -226 -30 -861
-15 -1115 30 -515 94 -1013 196 -1537 333 -1695 863 -2961 1677 -4008 357
-459 741 -835 1388 -1361 671 -545 1149 -812 1650 -923 179 -39 300 -49 529
-43 611 15 1154 226 2226 865 279 167 636 389 1322 823 238 151 517 326 619
389 211 130 350 237 490 377 178 179 317 368 415 568 69 141 94 224 154 509
356 1698 282 3491 -225 5416 -262 994 -672 2139 -1176 3278 -849 1922 -2087
3378 -3690 4340 -1332 799 -2951 1280 -4759 1412 -235 18 -878 24 -1125 11
-1934 -99 -3581 -738 -5055 -1961 -429 -356 -937 -860 -1471 -1460 -1004
-1128 -1709 -2177 -2236 -3330 -159 -347 -224 -462 -538 -950 -108 -168 -208
-324 -221 -347 -13 -24 -29 -43 -35 -43 -7 0 -68 26 -136 58 l-124 59 -32 104
c-83 268 -106 442 -99 744 7 311 43 512 147 825 73 221 140 375 289 665 510
992 1104 1917 1760 2740 336 421 599 714 1016 1130 399 399 617 597 973 883
1567 1258 3303 1982 5172 2156 326 31 564 39 1017 33 643 -8 1083 -49 1717
-162 977 -174 2034 -505 3071 -963 277 -122 835 -399 1075 -533 1947 -1087
3365 -2546 4261 -4384 249 -511 442 -997 729 -1835 600 -1751 895 -3285 1002
-5200 17 -304 17 -1508 0 -1825 -27 -511 -72 -1057 -92 -1125 -23 -77 -127
-766 -159 -1055 -68 -605 -84 -1384 -41 -1945 6 -74 13 -220 17 -325 6 -212
-9 -374 -52 -552 -13 -54 -22 -99 -21 -100 8 -8 299 427 418 622 711 1174
1156 2542 1272 3915 33 389 41 640 41 1315 0 783 -16 1124 -81 1775 -314 3140
-1469 6046 -3437 8650 -267 353 -552 706 -796 984 -1014 1160 -2302 2017
-3796 2526 -633 215 -1211 349 -2010 464 -170 25 -569 83 -885 130 -1307 194
-1945 264 -2700 297 -329 14 -988 6 -1270 -16 -1952 -152 -3619 -851 -4999
-2097 -192 -174 -456 -440 -667 -673 -309 -341 -596 -611 -900 -849 -205 -159
-551 -402 -560 -393 -3 3 -14 52 -24 111 -97 539 -3 1043 288 1534 154 259
353 503 667 817 1390 1392 3026 2271 4875 2619 398 75 761 117 1285 149 132 8
853 6 1011 -3z m5898 -8584 c132 -50 278 -167 419 -334 237 -284 594 -763 816
-1097 723 -1087 1164 -2154 1356 -3280 70 -410 98 -756 98 -1200 0 -497 -43
-960 -119 -1305 -76 -342 -245 -702 -444 -945 -92 -113 -263 -269 -377 -345
-261 -175 -515 -256 -833 -267 -319 -11 -602 56 -920 218 -215 109 -387 232
-671 482 -1760 1545 -2773 3498 -3009 5799 -66 647 36 1049 342 1343 107 104
198 167 330 230 365 172 786 212 1110 105 296 -98 569 -334 766 -662 95 -158
261 -506 407 -853 104 -246 215 -531 430 -1105 108 -289 254 -671 325 -850 70
-179 158 -408 194 -509 141 -389 261 -656 381 -846 181 -288 416 -528 710
-725 l104 -69 -5 412 c-8 807 -12 881 -54 1083 -24 116 -46 181 -121 356 -184
429 -494 1051 -949 1903 -155 292 -359 679 -453 860 -170 330 -207 390 -376
625 -111 154 -165 247 -198 342 -22 62 -25 85 -21 163 5 114 33 178 121 272
99 105 221 183 346 219 73 21 212 12 295 -20z"/>
<path d="M18980 27800 c-660 -51 -1459 -453 -2064 -1040 -492 -478 -1160
-1492 -1606 -2440 -430 -913 -788 -1978 -1035 -3075 -20 -88 -70 -298 -111
-467 -113 -465 -127 -557 -128 -823 0 -211 1 -225 31 -361 125 -559 505 -1710
841 -2549 113 -282 162 -387 302 -655 268 -513 487 -884 905 -1530 320 -496
465 -733 620 -1020 232 -428 867 -1130 1418 -1569 143 -114 141 -113 118 -54
-10 26 -131 329 -269 673 -385 964 -542 1461 -1142 3625 -418 1506 -615 2175
-680 2310 -50 103 -136 222 -300 415 -179 210 -223 270 -388 522 -178 272
-250 402 -293 525 -34 97 -34 100 -33 263 3 428 110 1017 276 1530 78 240 216
615 335 910 551 1369 1197 2403 2003 3210 357 356 694 629 1145 926 209 137
306 217 450 371 65 69 94 110 120 167 19 41 30 78 26 81 -38 23 -346 69 -426
63 -11 0 -63 -4 -115 -8z"/>
<path d="M15213 12994 c-97 -35 -181 -147 -190 -253 -2 -31 10 -544 26 -1141
27 -968 33 -1096 51 -1184 56 -281 180 -520 372 -721 150 -158 317 -271 505
-345 137 -54 4364 -1132 4439 -1133 115 0 219 66 271 171 23 47 28 70 28 133
0 64 -4 84 -30 135 -30 57 -98 115 -2619 2191 -2007 1653 -2598 2135 -2634
2147 -56 20 -163 19 -219 0z"/>
<path d="M29303 12986 c-52 -26 -5151 -4224 -5198 -4279 -42 -49 -65 -114 -65
-186 0 -74 14 -120 53 -178 19 -26 36 -56 40 -65 3 -10 15 -18 25 -18 11 0 41
-9 66 -21 86 -38 131 -31 586 85 228 59 496 125 595 147 229 52 661 162 920
234 110 30 677 177 1260 326 583 149 1087 280 1120 291 33 11 103 40 155 64
443 209 749 633 810 1124 9 76 58 1783 61 2132 1 125 -1 141 -23 190 -35 76
-70 112 -140 147 -54 27 -71 31 -142 30 -62 -1 -91 -6 -123 -23z"/>
<path d="M32070 11392 c-135 -124 -313 -295 -396 -379 l-151 -152 -77 -152
c-660 -1305 -1606 -2090 -3076 -2552 -699 -220 -1393 -362 -2826 -581 -1341
-205 -1575 -235 -2061 -258 -670 -31 -1255 66 -1788 298 l-100 44 60 -56 c225
-209 689 -507 1160 -744 283 -142 334 -164 785 -326 1407 -504 2060 -665 2700
-666 557 0 1043 128 1662 438 486 243 1124 642 1578 985 1038 785 1934 1831
2690 3137 128 222 168 328 319 862 27 96 52 182 55 191 5 12 -23 29 -131 77
-76 34 -143 62 -148 61 -6 0 -120 -102 -255 -227z"/>
<path d="M22247 22792 c-210 -514 -214 -536 -152 -874 352 -1921 1240 -3429
2687 -4564 180 -142 282 -192 601 -295 139 -45 258 -82 264 -83 7 -1 39 39 72
88 l60 90 -67 75 c-37 42 -108 123 -157 181 -132 153 -253 278 -400 409 -840
748 -1378 1569 -1675 2555 -80 267 -99 352 -210 936 -95 502 -233 946 -347
1120 -55 84 -181 201 -373 348 -96 73 -189 143 -205 157 l-30 24 -68 -167z"/>
</g>
</svg>
